# MetroBuilder Seoul Metro Bulky White model
o left_door_glass
v -0.870000 0.190000 0.110000
v -0.130000 0.190000 0.110000
v -0.130000 1.810000 0.110000
v -0.870000 1.810000 0.110000
v -0.130000 0.190000 0.075000
v -0.870000 0.190000 0.075000
v -0.870000 1.810000 0.075000
v -0.130000 1.810000 0.075000
v -0.870000 0.190000 0.075000
v -0.870000 0.190000 0.110000
v -0.870000 1.810000 0.110000
v -0.870000 1.810000 0.075000
v -0.130000 0.190000 0.110000
v -0.130000 0.190000 0.075000
v -0.130000 1.810000 0.075000
v -0.130000 1.810000 0.110000
v -0.870000 1.810000 0.110000
v -0.130000 1.810000 0.110000
v -0.130000 1.810000 0.075000
v -0.870000 1.810000 0.075000
v -0.870000 0.190000 0.075000
v -0.130000 0.190000 0.075000
v -0.130000 0.190000 0.110000
v -0.870000 0.190000 0.110000
vt 0.000000 0.000000
vt 1.000000 0.000000
vt 1.000000 1.000000
vt 0.000000 1.000000
vt 0.000000 0.000000
vt 1.000000 0.000000
vt 1.000000 1.000000
vt 0.000000 1.000000
vt 0.000000 0.000000
vt 1.000000 0.000000
vt 1.000000 1.000000
vt 0.000000 1.000000
vt 0.000000 0.000000
vt 1.000000 0.000000
vt 1.000000 1.000000
vt 0.000000 1.000000
vt 0.000000 0.000000
vt 1.000000 0.000000
vt 1.000000 1.000000
vt 0.000000 1.000000
vt 0.000000 0.000000
vt 1.000000 0.000000
vt 1.000000 1.000000
vt 0.000000 1.000000
s off
f 1/1 2/2 3/3 4/4
f 5/5 6/6 7/7 8/8
f 9/9 10/10 11/11 12/12
f 13/13 14/14 15/15 16/16
f 17/17 18/18 19/19 20/20
f 21/21 22/22 23/23 24/24
