# MetroBuilder Seoul Bulky single glass panel
o panel_dark
v -0.680000 0.130000 0.120000
v 0.680000 0.130000 0.120000
v 0.680000 0.190000 0.120000
v -0.680000 0.190000 0.120000
v 0.680000 0.130000 0.000000
v -0.680000 0.130000 0.000000
v -0.680000 0.190000 0.000000
v 0.680000 0.190000 0.000000
vt 0 0
vt 1 0
vt 1 1
vt 0 1
f 1/1 2/2 3/3 4/4
f 5/1 6/2 7/3 8/4
v -0.680000 1.910000 0.120000
v 0.680000 1.910000 0.120000
v 0.680000 1.970000 0.120000
v -0.680000 1.970000 0.120000
v 0.680000 1.910000 0.000000
v -0.680000 1.910000 0.000000
v -0.680000 1.970000 0.000000
v 0.680000 1.970000 0.000000
vt 0 0
vt 1 0
vt 1 1
vt 0 1
f 9/5 10/6 11/7 12/8
f 13/5 14/6 15/7 16/8
v -0.680000 0.190000 0.120000
v -0.620000 0.190000 0.120000
v -0.620000 1.910000 0.120000
v -0.680000 1.910000 0.120000
v -0.620000 0.190000 0.000000
v -0.680000 0.190000 0.000000
v -0.680000 1.910000 0.000000
v -0.620000 1.910000 0.000000
vt 0 0
vt 1 0
vt 1 1
vt 0 1
f 17/9 18/10 19/11 20/12
f 21/9 22/10 23/11 24/12
v 0.620000 0.190000 0.120000
v 0.680000 0.190000 0.120000
v 0.680000 1.910000 0.120000
v 0.620000 1.910000 0.120000
v 0.680000 0.190000 0.000000
v 0.620000 0.190000 0.000000
v 0.620000 1.910000 0.000000
v 0.680000 1.910000 0.000000
vt 0 0
vt 1 0
vt 1 1
vt 0 1
f 25/13 26/14 27/15 28/16
f 29/13 30/14 31/15 32/16
